<?xml version="1.0" encoding="UTF-8"?>
<svg xmlns="http://www.w3.org/2000/svg" xmlns:xlink="http://www.w3.org/1999/xlink" viewBox="0 0 80 80" version="1.1" fill="#F2D024"><g id="surface1" fill="#F2D024"><path style=" " d="M 15 9 L 15 15 L 17 15 L 17 71 L 63 71 L 63 15 L 65 15 L 65 9 Z M 17 11 L 63 11 L 63 13 L 61 13 L 61 69 L 46 69 L 46 58 L 48 58 L 48 56 L 32 56 L 32 58 L 34 58 L 34 69 L 19 69 L 19 13 L 17 13 Z M 22 13 C 21.449219 13 21 13.449219 21 14 C 21 14.550781 21.449219 15 22 15 C 22.550781 15 23 14.550781 23 14 C 23 13.449219 22.550781 13 22 13 Z M 26 13 C 25.449219 13 25 13.449219 25 14 C 25 14.550781 25.449219 15 26 15 C 26.550781 15 27 14.550781 27 14 C 27 13.449219 26.550781 13 26 13 Z M 30 13 C 29.449219 13 29 13.449219 29 14 C 29 14.550781 29.449219 15 30 15 C 30.550781 15 31 14.550781 31 14 C 31 13.449219 30.550781 13 30 13 Z M 34 13 C 33.449219 13 33 13.449219 33 14 C 33 14.550781 33.449219 15 34 15 C 34.550781 15 35 14.550781 35 14 C 35 13.449219 34.550781 13 34 13 Z M 38 13 C 37.449219 13 37 13.449219 37 14 C 37 14.550781 37.449219 15 38 15 C 38.550781 15 39 14.550781 39 14 C 39 13.449219 38.550781 13 38 13 Z M 42 13 C 41.449219 13 41 13.449219 41 14 C 41 14.550781 41.449219 15 42 15 C 42.550781 15 43 14.550781 43 14 C 43 13.449219 42.550781 13 42 13 Z M 46 13 C 45.449219 13 45 13.449219 45 14 C 45 14.550781 45.449219 15 46 15 C 46.550781 15 47 14.550781 47 14 C 47 13.449219 46.550781 13 46 13 Z M 50 13 C 49.449219 13 49 13.449219 49 14 C 49 14.550781 49.449219 15 50 15 C 50.550781 15 51 14.550781 51 14 C 51 13.449219 50.550781 13 50 13 Z M 54 13 C 53.449219 13 53 13.449219 53 14 C 53 14.550781 53.449219 15 54 15 C 54.550781 15 55 14.550781 55 14 C 55 13.449219 54.550781 13 54 13 Z M 58 13 C 57.449219 13 57 13.449219 57 14 C 57 14.550781 57.449219 15 58 15 C 58.550781 15 59 14.550781 59 14 C 59 13.449219 58.550781 13 58 13 Z M 22 20 L 22 28 L 28 28 L 28 20 Z M 32 20 L 32 28 L 38 28 L 38 20 Z M 42 20 L 42 28 L 48 28 L 48 20 Z M 52 20 L 52 28 L 58 28 L 58 20 Z M 24 22 L 26 22 L 26 26 L 24 26 Z M 34 22 L 36 22 L 36 26 L 34 26 Z M 44 22 L 46 22 L 46 26 L 44 26 Z M 54 22 L 56 22 L 56 26 L 54 26 Z M 22 32 L 22 40 L 28 40 L 28 32 Z M 32 32 L 32 40 L 38 40 L 38 32 Z M 42 32 L 42 40 L 48 40 L 48 32 Z M 52 32 L 52 40 L 58 40 L 58 32 Z M 24 34 L 26 34 L 26 38 L 24 38 Z M 34 34 L 36 34 L 36 38 L 34 38 Z M 44 34 L 46 34 L 46 38 L 44 38 Z M 54 34 L 56 34 L 56 38 L 54 38 Z M 22 44 L 22 52 L 28 52 L 28 44 Z M 32 44 L 32 52 L 38 52 L 38 44 Z M 42 44 L 42 52 L 48 52 L 48 44 Z M 52 44 L 52 52 L 58 52 L 58 44 Z M 24 46 L 26 46 L 26 50 L 24 50 Z M 34 46 L 36 46 L 36 50 L 34 50 Z M 44 46 L 46 46 L 46 50 L 44 50 Z M 54 46 L 56 46 L 56 50 L 54 50 Z M 22 56 L 22 64 L 28 64 L 28 56 Z M 52 56 L 52 64 L 58 64 L 58 56 Z M 24 58 L 26 58 L 26 62 L 24 62 Z M 36 58 L 44 58 L 44 69 L 36 69 Z M 54 58 L 56 58 L 56 62 L 54 62 Z " fill="#F2D024"/></g></svg>
