<?xml version="1.0" encoding="utf-8"?>
<svg xmlns="http://www.w3.org/2000/svg" viewBox="0 0 100 100" fill="#000000"><path style="line-height:normal;text-indent:0;text-align:start;text-decoration-line:none;text-decoration-style:solid;text-decoration-color:#000;text-transform:none;block-progression:tb;isolation:auto;mix-blend-mode:normal" d="M 49.978516 14.021484 C 30.108109 14.021484 13.978516 30.151078 13.978516 50.021484 C 13.978516 69.891891 30.108109 86.021484 49.978516 86.021484 C 69.848922 86.021484 85.978516 69.891891 85.978516 50.021484 C 85.978516 30.151078 69.848922 14.021484 49.978516 14.021484 z M 49.978516 16.021484 C 68.768042 16.021484 83.978516 31.231958 83.978516 50.021484 C 83.978516 68.81101 68.768042 84.021484 49.978516 84.021484 C 31.18899 84.021484 15.978516 68.81101 15.978516 50.021484 C 15.978516 31.231958 31.18899 16.021484 49.978516 16.021484 z M 49.978516 19.021484 C 32.863307 19.021484 18.978516 32.906276 18.978516 50.021484 C 18.978516 67.136693 32.863307 81.021484 49.978516 81.021484 C 67.093724 81.021484 80.978516 67.136693 80.978516 50.021484 C 80.978516 40.925867 77.057591 32.738304 70.814453 27.068359 A 0.50005 0.50005 0 1 0 70.142578 27.808594 C 76.18544 33.296649 79.978516 41.213102 79.978516 50.021484 C 79.978516 66.596276 66.553307 80.021484 49.978516 80.021484 C 33.403724 80.021484 19.978516 66.596276 19.978516 50.021484 C 19.978516 33.446693 33.403724 20.021484 49.978516 20.021484 C 53.609256 20.021484 57.086577 20.665472 60.306641 21.845703 A 0.50005 0.50005 0 1 0 60.650391 20.908203 C 57.322454 19.688434 53.727775 19.021484 49.978516 19.021484 z M 63.458984 22.160156 A 0.50005 0.50005 0 0 0 63.257812 23.111328 C 63.927562 23.44276 64.583008 23.798875 65.224609 24.177734 A 0.50005 0.50005 0 1 0 65.732422 23.318359 C 65.070023 22.927219 64.393423 22.559365 63.701172 22.216797 A 0.50005 0.50005 0 0 0 63.458984 22.160156 z M 67.486328 24.533203 A 0.50005 0.50005 0 0 0 67.191406 25.447266 C 67.524099 25.680544 67.853681 25.921484 68.175781 26.167969 A 0.50021557 0.50021557 0 0 0 68.783203 25.373047 C 68.449303 25.117532 68.108933 24.869628 67.765625 24.628906 A 0.50005 0.50005 0 0 0 67.486328 24.533203 z M 45 38.003906 C 44.487179 38.003906 43.974547 38.197991 43.585938 38.585938 L 33.585938 48.585938 C 32.809083 49.362792 32.809083 50.637208 33.585938 51.414062 L 43.585938 61.414062 C 44.362792 62.190917 45.637208 62.190918 46.414062 61.414062 C 47.190917 60.637208 47.190918 59.362792 46.414062 58.585938 L 39.828125 52 L 65 52 C 66.098129 52 67 51.099205 67 50 C 67 48.900795 66.098129 48 65 48 L 39.828125 48 L 46.412109 41.416016 L 46.414062 41.414062 C 46.802815 41.025571 47 40.509886 47 40 C 47 39.489264 46.802792 38.974666 46.414062 38.585938 C 46.025453 38.197991 45.512821 38.003906 45 38.003906 z M 45 38.998047 C 45.255179 38.998047 45.50964 39.095917 45.707031 39.292969 C 45.904302 39.49024 46 39.742736 46 40 C 46 40.257264 45.90494 40.509796 45.707031 40.707031 L 37.414062 49 L 65 49 C 65.557871 49 66 49.441205 66 50 C 66 50.558795 65.557871 51 65 51 L 37.414062 51 L 45.707031 59.292969 C 46.102177 59.688114 46.102177 60.311886 45.707031 60.707031 C 45.311886 61.102177 44.688114 61.102177 44.292969 60.707031 L 34.292969 50.707031 C 33.897823 50.311886 33.897823 49.688114 34.292969 49.292969 L 44.292969 39.292969 C 44.49036 39.095915 44.744821 38.998047 45 38.998047 z" font-weight="400" font-family="sans-serif" white-space="normal" overflow="visible" fill="#000000"/></svg>
