<?xml version="1.0" encoding="utf-8"?>
<svg xmlns="http://www.w3.org/2000/svg" viewBox="0 0 100 100" fill="#000000"><path style="line-height:normal;text-indent:0;text-align:start;text-decoration-line:none;text-decoration-style:solid;text-decoration-color:#000;text-transform:none;block-progression:tb;isolation:auto;mix-blend-mode:normal" d="M 49.978516 14.021484 C 30.108109 14.021484 13.978516 30.151078 13.978516 50.021484 C 13.978516 69.891891 30.108109 86.021484 49.978516 86.021484 C 69.848922 86.021484 85.978516 69.891891 85.978516 50.021484 C 85.978516 30.151078 69.848922 14.021484 49.978516 14.021484 z M 49.978516 16.021484 C 68.768042 16.021484 83.978516 31.231958 83.978516 50.021484 C 83.978516 68.81101 68.768042 84.021484 49.978516 84.021484 C 31.18899 84.021484 15.978516 68.81101 15.978516 50.021484 C 15.978516 31.231958 31.18899 16.021484 49.978516 16.021484 z M 49.978516 19.021484 C 32.863307 19.021484 18.978516 32.906276 18.978516 50.021484 C 18.978516 67.136693 32.863307 81.021484 49.978516 81.021484 C 67.093724 81.021484 80.978516 67.136693 80.978516 50.021484 C 80.978516 40.925867 77.057591 32.738304 70.814453 27.068359 A 0.50005 0.50005 0 1 0 70.142578 27.808594 C 76.18544 33.296649 79.978516 41.213102 79.978516 50.021484 C 79.978516 66.596276 66.553307 80.021484 49.978516 80.021484 C 33.403724 80.021484 19.978516 66.596276 19.978516 50.021484 C 19.978516 33.446693 33.403724 20.021484 49.978516 20.021484 C 53.609256 20.021484 57.086577 20.665472 60.306641 21.845703 A 0.50005 0.50005 0 1 0 60.650391 20.908203 C 57.322454 19.688434 53.727775 19.021484 49.978516 19.021484 z M 63.458984 22.160156 A 0.50005 0.50005 0 0 0 63.257812 23.111328 C 63.927562 23.44276 64.583008 23.798875 65.224609 24.177734 A 0.50005 0.50005 0 1 0 65.732422 23.318359 C 65.070023 22.927219 64.393423 22.559365 63.701172 22.216797 A 0.50005 0.50005 0 0 0 63.458984 22.160156 z M 67.486328 24.533203 A 0.50005 0.50005 0 0 0 67.191406 25.447266 C 67.524099 25.680544 67.853681 25.921484 68.175781 26.167969 A 0.50021557 0.50021557 0 0 0 68.783203 25.373047 C 68.449303 25.117532 68.108933 24.869628 67.765625 24.628906 A 0.50005 0.50005 0 0 0 67.486328 24.533203 z M 55 38.003906 C 54.487187 38.003906 53.974364 38.19751 53.585938 38.585938 C 52.809083 39.362792 52.809082 40.637208 53.585938 41.414062 L 60.171875 48 L 35 48 C 33.901871 48 33 48.900795 33 50 C 33 51.099205 33.901871 52 35 52 L 60.171875 52 L 53.585938 58.585938 C 53.197138 58.974476 53 59.490114 53 60 C 53 60.510736 53.197208 61.025334 53.585938 61.414062 C 54.363155 62.189956 55.636844 62.189955 56.414062 61.414062 L 66.414062 51.414062 C 67.190917 50.637208 67.190917 49.362792 66.414062 48.585938 L 56.414062 38.585938 C 56.025635 38.19751 55.512813 38.003906 55 38.003906 z M 55 38.998047 C 55.254687 38.998047 55.509458 39.095397 55.707031 39.292969 L 65.707031 49.292969 C 66.102177 49.688114 66.102177 50.311886 65.707031 50.707031 L 55.707031 60.707031 C 55.31225 61.101139 54.68775 61.101139 54.292969 60.707031 C 54.095698 60.50976 54 60.257264 54 60 C 54 59.742736 54.09506 59.490204 54.292969 59.292969 L 62.585938 51 L 35 51 C 34.442129 51 34 50.558795 34 50 C 34 49.441205 34.442129 49 35 49 L 62.585938 49 L 54.292969 40.707031 C 53.897823 40.311886 53.897823 39.688114 54.292969 39.292969 C 54.490542 39.095396 54.745313 38.998047 55 38.998047 z" font-weight="400" font-family="sans-serif" white-space="normal" overflow="visible" fill="#000000"/></svg>
