<?xml version="1.0" encoding="utf-8"?>
<svg xmlns="http://www.w3.org/2000/svg" viewBox="0 0 80 80" fill="#F2D024"><path style="line-height:normal;text-indent:0;text-align:start;text-decoration-line:none;text-decoration-style:solid;text-decoration-color:#000;text-transform:none;block-progression:tb;isolation:auto;mix-blend-mode:normal" d="M 9 7 C 6.794 7 5 8.794 5 11 C 5 12.86 6.277 14.427047 8 14.873047 L 8 33.126953 C 6.277 33.571953 5 35.14 5 37 C 5 38.86 6.277 40.427047 8 40.873047 L 8 59.126953 C 6.277 59.571953 5 61.14 5 63 C 5 65.206 6.794 67 9 67 L 23.0625 67 L 23.470703 65 L 9 65 C 7.897 65 7 64.103 7 63 C 7 61.897 7.897 61 9 61 L 10 61 L 10 39 L 9 39 C 7.897 39 7 38.103 7 37 C 7 35.897 7.897 35 9 35 L 10 35 L 10 13 L 9 13 C 7.897 13 7 12.103 7 11 C 7 9.897 7.897 9 9 9 L 49 9 C 50.103 9 51 9.897 51 11 C 51 12.103 50.103 13 49 13 L 48 13 L 48 35 L 49 35 C 50.103 35 51 35.897 51 37 C 51 38.103 50.103 39 49 39 L 48 39 L 48 41 L 49 41 C 51.206 41 53 39.206 53 37 C 53 35.142 51.72 33.589578 50 33.142578 L 50 14.873047 C 51.723 14.428047 53 12.861 53 11 C 53 8.794 51.206 7 49 7 L 9 7 z M 13 13 A 1 1 0 0 0 12 14 A 1 1 0 0 0 13 15 A 1 1 0 0 0 14 14 A 1 1 0 0 0 13 13 z M 17 13 A 1 1 0 0 0 16 14 A 1 1 0 0 0 17 15 A 1 1 0 0 0 18 14 A 1 1 0 0 0 17 13 z M 21 13 A 1 1 0 0 0 20 14 A 1 1 0 0 0 21 15 A 1 1 0 0 0 22 14 A 1 1 0 0 0 21 13 z M 25 13 A 1 1 0 0 0 24 14 A 1 1 0 0 0 25 15 A 1 1 0 0 0 26 14 A 1 1 0 0 0 25 13 z M 29 13 A 1 1 0 0 0 28 14 A 1 1 0 0 0 29 15 A 1 1 0 0 0 30 14 A 1 1 0 0 0 29 13 z M 33 13 A 1 1 0 0 0 32 14 A 1 1 0 0 0 33 15 A 1 1 0 0 0 34 14 A 1 1 0 0 0 33 13 z M 37 13 A 1 1 0 0 0 36 14 A 1 1 0 0 0 37 15 A 1 1 0 0 0 38 14 A 1 1 0 0 0 37 13 z M 41 13 A 1 1 0 0 0 40 14 A 1 1 0 0 0 41 15 A 1 1 0 0 0 42 14 A 1 1 0 0 0 41 13 z M 45 13 A 1 1 0 0 0 44 14 A 1 1 0 0 0 45 15 A 1 1 0 0 0 46 14 A 1 1 0 0 0 45 13 z M 29 25.091797 L 28.171875 26.314453 C 28.171875 26.314453 26.403381 28.925194 24.630859 32.037109 C 23.744598 33.593067 22.855251 35.276091 22.175781 36.847656 C 21.496311 38.419222 21 39.840916 21 41.115234 C 21 45.534734 24.532403 49 29 49 C 33.467597 49 37 45.534734 37 41.115234 C 37 39.840916 36.503689 38.419222 35.824219 36.847656 C 35.144749 35.276091 34.255402 33.593067 33.369141 32.037109 C 31.596619 28.925194 29.828125 26.314453 29.828125 26.314453 L 29 25.091797 z M 29 28.773438 C 29.554833 29.614152 30.31677 30.720272 31.630859 33.027344 C 32.494598 34.543761 33.355251 36.176472 33.988281 37.640625 C 34.621311 39.104778 35 40.439053 35 41.115234 C 35 44.497735 32.464403 47 29 47 C 25.535597 47 23 44.497735 23 41.115234 C 23 40.439053 23.378689 39.104778 24.011719 37.640625 C 24.644749 36.176472 25.505402 34.543761 26.369141 33.027344 C 27.68323 30.720272 28.445167 29.614153 29 28.773438 z M 13 33 A 1 1 0 0 0 12 34 A 1 1 0 0 0 13 35 A 1 1 0 0 0 14 34 A 1 1 0 0 0 13 33 z M 17 33 A 1 1 0 0 0 16 34 A 1 1 0 0 0 17 35 A 1 1 0 0 0 18 34 A 1 1 0 0 0 17 33 z M 41 33 A 1 1 0 0 0 40 34 A 1 1 0 0 0 41 35 A 1 1 0 0 0 42 34 A 1 1 0 0 0 41 33 z M 45 33 A 1 1 0 0 0 44 34 A 1 1 0 0 0 45 35 A 1 1 0 0 0 46 34 A 1 1 0 0 0 45 33 z M 13 39 A 1 1 0 0 0 12 40 A 1 1 0 0 0 13 41 A 1 1 0 0 0 14 40 A 1 1 0 0 0 13 39 z M 17 39 A 1 1 0 0 0 16 40 A 1 1 0 0 0 17 41 A 1 1 0 0 0 18 40 A 1 1 0 0 0 17 39 z M 41 39 A 1 1 0 0 0 40 40 A 1 1 0 0 0 41 41 A 1 1 0 0 0 42 40 A 1 1 0 0 0 41 39 z M 45 39 A 1 1 0 0 0 44 40 A 1 1 0 0 0 45 41 A 1 1 0 0 0 46 40 A 1 1 0 0 0 45 39 z M 46.121094 44 C 44.40137 44 42.871755 45.266364 42.65625 47.025391 L 42.667969 46.947266 L 41.433594 53 L 38.121094 53 C 36.40137 53 34.922198 54.238716 34.546875 55.929688 L 34.542969 55.947266 L 33.417969 62 L 30.121094 62 C 28.40137 62 26.922198 63.238716 26.546875 64.929688 L 26.542969 64.947266 L 25.046875 73 L 42.953125 73 L 58.953125 73 L 74.953125 73 L 73.457031 64.947266 L 73.453125 64.929688 C 73.077796 63.238717 71.599246 62 69.878906 62 L 66.582031 62 L 65.457031 55.947266 L 65.453125 55.929688 C 65.077796 54.238717 63.599246 53 61.878906 53 L 58.582031 53 L 57.457031 46.947266 L 57.453125 46.929688 C 57.077796 45.238717 55.599246 44 53.878906 44 L 46.121094 44 z M 46.121094 46 L 53.878906 46 C 54.644566 46 55.317323 46.540252 55.5 47.363281 L 56.546875 53 L 54.121094 53 L 45.878906 53 L 43.474609 53 L 44.636719 47.308594 L 44.640625 47.269531 C 44.733126 46.514555 45.356818 46 46.121094 46 z M 38.121094 55 L 41.025391 55 L 45.878906 55 C 46.644566 55 47.317323 55.540252 47.5 56.363281 L 48.546875 62 L 37.878906 62 L 35.453125 62 L 36.5 56.363281 C 36.682677 55.540252 37.356818 55 38.121094 55 z M 49.101562 55 L 50.898438 55 C 50.746642 55.290676 50.620413 55.598373 50.546875 55.929688 L 50.542969 55.947266 L 50 58.869141 L 49.457031 55.947266 L 49.453125 55.929688 C 49.379586 55.598373 49.253327 55.290675 49.101562 55 z M 54.121094 55 L 58.953125 55 L 61.878906 55 C 62.644566 55 63.317323 55.540252 63.5 56.363281 L 64.546875 62 L 53.878906 62 L 51.453125 62 L 52.5 56.363281 C 52.682677 55.540252 53.356818 55 54.121094 55 z M 13 59 A 1 1 0 0 0 12 60 A 1 1 0 0 0 13 61 A 1 1 0 0 0 14 60 A 1 1 0 0 0 13 59 z M 17 59 A 1 1 0 0 0 16 60 A 1 1 0 0 0 17 61 A 1 1 0 0 0 18 60 A 1 1 0 0 0 17 59 z M 21 59 A 1 1 0 0 0 20 60 A 1 1 0 0 0 21 61 A 1 1 0 0 0 22 60 A 1 1 0 0 0 21 59 z M 25 59 A 1 1 0 0 0 24 60 A 1 1 0 0 0 25 61 A 1 1 0 0 0 26 60 A 1 1 0 0 0 25 59 z M 30.121094 64 L 37.878906 64 C 38.644566 64 39.317323 64.540252 39.5 65.363281 L 40.546875 71 L 27.453125 71 L 28.5 65.363281 C 28.682677 64.540252 29.356818 64 30.121094 64 z M 41.101562 64 L 42.898438 64 C 42.746642 64.290676 42.620413 64.598373 42.546875 64.929688 L 42.542969 64.947266 L 42 67.869141 L 41.457031 64.947266 L 41.453125 64.929688 C 41.379586 64.598372 41.253327 64.290675 41.101562 64 z M 46.121094 64 L 50.953125 64 L 53.878906 64 C 54.644566 64 55.317323 64.540252 55.5 65.363281 L 56.546875 71 L 43.453125 71 L 44.5 65.363281 C 44.682677 64.540252 45.356818 64 46.121094 64 z M 57.101562 64 L 58.898438 64 C 58.746642 64.290676 58.620413 64.598372 58.546875 64.929688 L 58.542969 64.947266 L 58 67.869141 L 57.457031 64.947266 L 57.453125 64.929688 C 57.379586 64.598373 57.253325 64.290675 57.101562 64 z M 62.121094 64 L 66.953125 64 L 69.878906 64 C 70.644566 64 71.317323 64.540252 71.5 65.363281 L 72.546875 71 L 59.453125 71 L 60.5 65.363281 C 60.682677 64.540252 61.356818 64 62.121094 64 z" fill="#F2D024"/></svg>
