<?xml version="1.0" encoding="utf-8"?>
<svg xmlns="http://www.w3.org/2000/svg" viewBox="0 0 100 100" fill="#F2D024"><path d="M 29.988281 10.955078 C 25.541281 10.955078 21.960938 15.680797 21.960938 19.591797 L 21.90625 61.986328 L 12.988281 61.960938 L 12.986328 61.960938 C 12.443328 61.960938 11.998328 62.3945 11.986328 62.9375 C 11.983328 63.1055 11.982344 83.647422 12.027344 84.107422 C 12.563344 89.614422 17.967969 91.001953 21.417969 91.001953 C 21.774969 91.001953 22.110969 90.986937 22.417969 90.960938 L 80.697266 90.957031 C 84.560266 91.330031 86.683063 84.844469 86.914062 84.105469 C 86.944062 84.008469 86.960938 83.908641 86.960938 83.806641 L 86.960938 20.904297 L 90.103516 20.898438 C 90.644516 20.897438 91.086562 20.466781 91.101562 19.925781 C 91.172562 17.410781 90.41275 15.358219 88.84375 13.824219 C 85.66775 10.718219 80.331297 10.951937 80.154297 10.960938 L 29.988281 10.955078 z M 29.990234 12.955078 L 80.203125 12.960938 C 80.247125 12.955937 84.907172 12.765766 87.451172 15.259766 C 88.401172 16.191766 88.946172 17.412437 89.076172 18.898438 L 51.958984 18.960938 C 51.405984 18.961938 50.959938 19.410891 50.960938 19.962891 C 50.961938 20.514891 51.408938 20.960938 51.960938 20.960938 L 84.960938 20.90625 L 84.960938 83.648438 C 84.336937 85.544437 82.608063 89.154938 80.789062 88.960938 L 22.332031 88.964844 C 22.016031 88.994844 14.567531 89.563172 14.019531 83.951172 C 13.990531 83.257172 13.984375 68.013891 13.984375 63.962891 L 21.904297 63.984375 L 21.878906 82.986328 C 21.878906 83.057328 21.885391 83.126312 21.900391 83.195312 C 21.904391 83.210313 22.211 84.79225 21.25 85.40625 C 20.784 85.70325 20.648312 86.322109 20.945312 86.787109 C 21.136312 87.086109 21.459063 87.25 21.789062 87.25 C 21.973062 87.25 22.159172 87.198797 22.326172 87.091797 C 23.972172 86.040797 24.085859 84.010625 23.880859 82.890625 L 23.90625 63.259766 C 23.931135 63.172917 23.960765 63.086989 23.960938 62.992188 C 23.961287 62.895787 23.931456 62.809033 23.90625 62.720703 L 23.960938 19.59375 C 23.960938 16.60575 26.743234 12.955078 29.990234 12.955078 z M 41.960938 18.960938 C 41.408937 18.960938 40.960938 19.408938 40.960938 19.960938 C 40.960938 20.512937 41.408938 20.960938 41.960938 20.960938 L 46.960938 20.960938 C 47.512937 20.960938 47.960938 20.512937 47.960938 19.960938 C 47.960938 19.408938 47.512937 18.960938 46.960938 18.960938 L 41.960938 18.960938 z M 28.460938 27.960938 C 28.184938 27.960938 27.960938 28.184938 27.960938 28.460938 C 27.960938 28.736937 28.184938 28.960938 28.460938 28.960938 L 51.460938 28.960938 C 51.736938 28.960937 51.960938 28.736937 51.960938 28.460938 C 51.960937 28.184938 51.736938 27.960938 51.460938 27.960938 L 28.460938 27.960938 z M 54.460938 27.960938 C 54.184937 27.960938 53.960938 28.184938 53.960938 28.460938 C 53.960938 28.736937 54.184937 28.960938 54.460938 28.960938 L 68.460938 28.960938 C 68.736938 28.960937 68.960938 28.736937 68.960938 28.460938 C 68.960938 28.184938 68.736937 27.960938 68.460938 27.960938 L 54.460938 27.960938 z M 71.460938 27.960938 C 71.184937 27.960938 70.960938 28.184938 70.960938 28.460938 C 70.960938 28.736937 71.184938 28.960938 71.460938 28.960938 L 82.460938 28.960938 C 82.736938 28.960937 82.960938 28.736937 82.960938 28.460938 C 82.960938 28.184938 82.736937 27.960938 82.460938 27.960938 L 71.460938 27.960938 z M 28.460938 33.960938 C 28.184938 33.960938 27.960938 34.184937 27.960938 34.460938 C 27.960938 34.736937 28.184938 34.960938 28.460938 34.960938 L 46.460938 34.960938 C 46.736938 34.960938 46.960938 34.736938 46.960938 34.460938 C 46.960937 34.184938 46.736938 33.960938 46.460938 33.960938 L 28.460938 33.960938 z M 49.460938 33.960938 C 49.184937 33.960938 48.960938 34.184937 48.960938 34.460938 C 48.960938 34.736937 49.184937 34.960938 49.460938 34.960938 L 82.460938 34.960938 C 82.736938 34.960938 82.960938 34.736938 82.960938 34.460938 C 82.960938 34.184938 82.736937 33.960938 82.460938 33.960938 L 49.460938 33.960938 z M 28.460938 41.960938 C 28.184938 41.960938 27.960938 42.184937 27.960938 42.460938 L 27.960938 58.460938 C 27.960938 58.736938 28.184938 58.960938 28.460938 58.960938 L 45.460938 58.960938 C 45.736938 58.960937 45.960938 58.736938 45.960938 58.460938 L 45.960938 45.460938 C 45.960937 45.184937 45.736938 44.960938 45.460938 44.960938 C 45.184937 44.960938 44.960938 45.184937 44.960938 45.460938 L 44.960938 57.960938 L 28.960938 57.960938 L 28.960938 42.960938 L 42.460938 42.960938 C 42.736937 42.960938 42.960938 42.736938 42.960938 42.460938 C 42.960938 42.184938 42.736938 41.960938 42.460938 41.960938 L 28.460938 41.960938 z M 51.460938 43.960938 C 51.184937 43.960938 50.960938 44.184937 50.960938 44.460938 C 50.960938 44.736938 51.184937 44.960938 51.460938 44.960938 L 82.460938 44.960938 C 82.736938 44.960937 82.960938 44.736938 82.960938 44.460938 C 82.960938 44.184937 82.736937 43.960938 82.460938 43.960938 L 51.460938 43.960938 z M 51.460938 50.960938 C 51.184937 50.960938 50.960938 51.184937 50.960938 51.460938 C 50.960938 51.736938 51.184937 51.960938 51.460938 51.960938 L 82.460938 51.960938 C 82.736938 51.960937 82.960938 51.736938 82.960938 51.460938 C 82.960938 51.184937 82.736937 50.960938 82.460938 50.960938 L 51.460938 50.960938 z M 51.460938 57.960938 C 51.184937 57.960938 50.960938 58.184937 50.960938 58.460938 C 50.960938 58.736938 51.184937 58.960938 51.460938 58.960938 L 82.460938 58.960938 C 82.736938 58.960937 82.960938 58.736938 82.960938 58.460938 C 82.960938 58.184937 82.736937 57.960938 82.460938 57.960938 L 51.460938 57.960938 z M 28.460938 65.960938 C 28.184938 65.960938 27.960938 66.184938 27.960938 66.460938 C 27.960938 66.736938 28.184938 66.960938 28.460938 66.960938 L 59.460938 66.960938 C 59.736938 66.960938 59.960938 66.736937 59.960938 66.460938 C 59.960937 66.184937 59.736938 65.960938 59.460938 65.960938 L 28.460938 65.960938 z M 64.460938 65.960938 C 64.184937 65.960938 63.960938 66.184938 63.960938 66.460938 L 63.960938 80.460938 C 63.960938 80.736938 64.184938 80.960938 64.460938 80.960938 C 64.736938 80.960938 64.960938 80.736937 64.960938 80.460938 L 64.960938 66.960938 L 80.960938 66.960938 L 80.960938 81.960938 L 68.460938 81.960938 C 68.184937 81.960938 67.960938 82.184938 67.960938 82.460938 C 67.960938 82.736938 68.184938 82.960938 68.460938 82.960938 L 81.460938 82.960938 C 81.736938 82.960938 81.960938 82.736937 81.960938 82.460938 L 81.960938 66.460938 C 81.960938 66.184937 81.736937 65.960938 81.460938 65.960938 L 64.460938 65.960938 z M 28.460938 72.960938 C 28.184938 72.960938 27.960938 73.184938 27.960938 73.460938 C 27.960938 73.736938 28.184938 73.960938 28.460938 73.960938 L 59.460938 73.960938 C 59.736938 73.960938 59.960938 73.736937 59.960938 73.460938 C 59.960937 73.184937 59.736938 72.960938 59.460938 72.960938 L 28.460938 72.960938 z M 28.460938 79.960938 C 28.184938 79.960938 27.960938 80.184938 27.960938 80.460938 C 27.960938 80.736938 28.184938 80.960938 28.460938 80.960938 L 59.460938 80.960938 C 59.736938 80.960938 59.960938 80.736937 59.960938 80.460938 C 59.960937 80.184937 59.736938 79.960938 59.460938 79.960938 L 28.460938 79.960938 z" fill="#F2D024"/></svg>
