<svg width="48" height="48" viewBox="0 0 24 24" fill="none" xmlns="http://www.w3.org/2000/svg"><rect width="24" height="24" fill="none" rx="0" ry="0"></rect><path fill-rule="evenodd" clip-rule="evenodd" d="M12.5 3.5C11.9477 3.5 11.5 3.94772 11.5 4.5V21H14.5V4.5C14.5 3.94772 14.0523 3.5 13.5 3.5H12.5ZM6.5 7.5C6.5 6.94772 6.94772 6.5 7.5 6.5H8.5C9.05228 6.5 9.5 6.94772 9.5 7.5V21H6.5V7.5ZM16.5 11.5C16.5 10.9477 16.9477 10.5 17.5 10.5H18.5C19.0523 10.5 19.5 10.9477 19.5 11.5V21H16.5V11.5Z" fill="#28323F"></path><path fill-rule="evenodd" clip-rule="evenodd" d="M11.5 4.5C11.5 3.94771 11.9477 3.5 12.5 3.5H13.5C14.0523 3.5 14.5 3.94772 14.5 4.5V15.3615V20H11.5V9.17337V4.5Z" fill="#F9CA24" fill-opacity="0.3"></path><path fill-rule="evenodd" clip-rule="evenodd" d="M3.6 3C3.26863 3 3 3.26863 3 3.6V8.4C3 8.73137 3.26863 9 3.6 9C3.93137 9 4.2 8.73137 4.2 8.4V3.6C4.2 3.26863 3.93137 3 3.6 3ZM3.6 14C3.26863 14 3 14.2686 3 14.6V19.8V20.7C3 20.8657 3.13431 21 3.3 21H20.4C20.7314 21 21 20.7314 21 20.4C21 20.0686 20.7314 19.8 20.4 19.8H4.2V14.6C4.2 14.2686 3.93137 14 3.6 14ZM3 10.6C3 10.2686 3.26863 10 3.6 10C3.93137 10 4.2 10.2686 4.2 10.6V12.4C4.2 12.7314 3.93137 13 3.6 13C3.26863 13 3 12.7314 3 12.4V10.6ZM7 6C6.44772 6 6 6.44772 6 7V17.4C6 17.7314 6.26863 18 6.6 18C6.93137 18 7.2 17.7314 7.2 17.4V7.49655C7.2 7.33086 7.33431 7.19655 7.5 7.19655H8.5C8.66569 7.19655 8.8 7.33086 8.8 7.49655V17.4C8.8 17.7314 9.06863 18 9.4 18C9.73137 18 10 17.7314 10 17.4V7C10 6.44772 9.55228 6 9 6H7ZM11 4C11 3.44772 11.4477 3 12 3H14C14.5523 3 15 3.44772 15 4V17.4C15 17.7314 14.7314 18 14.4 18C14.0686 18 13.8 17.7314 13.8 17.4V4.5C13.8 4.33432 13.6657 4.2 13.5 4.2H12.5C12.3343 4.2 12.2 4.33431 12.2 4.5V17.4C12.2 17.7314 11.9314 18 11.6 18C11.2686 18 11 17.7314 11 17.4V4ZM17 10C16.4477 10 16 10.4477 16 11V17.4C16 17.7314 16.2686 18 16.6 18C16.9314 18 17.2 17.7314 17.2 17.4V11.5C17.2 11.3343 17.3343 11.2 17.5 11.2H18.5C18.6657 11.2 18.8 11.3343 18.8 11.5V17.4C18.8 17.7314 19.0686 18 19.4 18C19.7314 18 20 17.7314 20 17.4V11C20 10.4477 19.5523 10 19 10H17Z" fill="#FFD06F"></path></svg>