<svg width="24" height="24" viewBox="0 0 24 24" fill="none" xmlns="http://www.w3.org/2000/svg"><rect width="24" height="24" fill="none" rx="0" ry="0"></rect><path fill-rule="evenodd" clip-rule="evenodd" d="M7.99997 3.3999C8.88363 3.3999 9.59997 4.11625 9.59997 4.9999C9.59997 5.88356 8.88363 6.5999 7.99997 6.5999C7.11632 6.5999 6.39997 5.88356 6.39997 4.9999C6.39997 4.11625 7.11632 3.3999 7.99997 3.3999ZM8.00002 20.5999C7.66865 20.5999 7.40002 20.3312 7.40002 19.9999V8.99985C7.40002 8.66848 7.66865 8.39985 8.00002 8.39985C8.33139 8.39985 8.60002 8.66848 8.60002 8.99985L8.60002 19.9999C8.60002 20.3312 8.33139 20.5999 8.00002 20.5999ZM4.00002 20.5999C3.66865 20.5999 3.40002 20.3312 3.40002 19.9999V13.9999C3.40002 13.6685 3.66865 13.3999 4.00002 13.3999C4.33139 13.3999 4.60002 13.6685 4.60002 13.9999V19.9999C4.60002 20.3312 4.33139 20.5999 4.00002 20.5999ZM11.4 19.9999C11.4 20.3312 11.6687 20.5999 12 20.5999C12.3314 20.5999 12.6 20.3312 12.6 19.9999V11.9999C12.6 11.6685 12.3314 11.3999 12 11.3999C11.6687 11.3999 11.4 11.6685 11.4 11.9999V19.9999ZM16 20.5999C15.6687 20.5999 15.4 20.3312 15.4 19.9999V16.9999C15.4 16.6685 15.6687 16.3999 16 16.3999C16.3314 16.3999 16.6 16.6685 16.6 16.9999V19.9999C16.6 20.3312 16.3314 20.5999 16 20.5999ZM19.4 19.9999C19.4 20.3312 19.6687 20.5999 20 20.5999C20.3314 20.5999 20.6 20.3312 20.6 19.9999V11.9999C20.6 11.6685 20.3314 11.3999 20 11.3999C19.6687 11.3999 19.4 11.6685 19.4 11.9999V19.9999ZM3.99997 8.3999C4.88363 8.3999 5.59997 9.11625 5.59997 9.9999C5.59997 10.8836 4.88363 11.5999 3.99997 11.5999C3.11632 11.5999 2.39997 10.8836 2.39997 9.9999C2.39997 9.11625 3.11632 8.3999 3.99997 8.3999ZM12 6.3999C12.8836 6.3999 13.6 7.11625 13.6 7.9999C13.6 8.88356 12.8836 9.5999 12 9.5999C11.1163 9.5999 10.4 8.88356 10.4 7.9999C10.4 7.11625 11.1163 6.3999 12 6.3999ZM20 6.3999C20.8836 6.3999 21.6 7.11625 21.6 7.9999C21.6 8.88356 20.8836 9.5999 20 9.5999C19.1163 9.5999 18.4 8.88356 18.4 7.9999C18.4 7.11625 19.1163 6.3999 20 6.3999ZM16 11.3999C16.8836 11.3999 17.6 12.1162 17.6 12.9999C17.6 13.8836 16.8836 14.5999 16 14.5999C15.1163 14.5999 14.4 13.8836 14.4 12.9999C14.4 12.1162 15.1163 11.3999 16 11.3999Z" fill="#F2D024"></path></svg>